<?xml version="1.0" encoding="iso-8859-1"?>
<!-- Generator: Adobe Illustrator 19.0.0, SVG Export Plug-In . SVG Version: 6.00 Build 0)  -->
<svg version="1.1" id="Capa_1" xmlns="http://www.w3.org/2000/svg" xmlns:xlink="http://www.w3.org/1999/xlink" x="0px" y="0px"
	 viewBox="0 0 512 512" style="enable-background:new 0 0 512 512;" xml:space="preserve">
<g>
	<g>
		<path d="M255.605,390.921c-24.345,0-44.912,21.024-44.912,45.91c0,8.268,6.703,14.971,14.971,14.971s14.971-6.703,14.971-14.971
			c0-8.506,6.995-15.969,14.971-15.969s14.971,7.462,14.971,15.969c0,8.268,6.703,14.971,14.971,14.971s14.971-6.703,14.971-14.971
			C300.517,411.945,279.95,390.921,255.605,390.921z"/>
	</g>
</g>
<g>
	<g>
		<path d="M492.209,116.427c28.834-19.476,25.557-62.893-5.89-77.796L419.576,4.524c-0.161-0.082-0.322-0.162-0.485-0.238
			c-23.913-11.149-51.064,2.34-60.525,26.124c-4.064-1.009-8.432-1.778-13.136-1.778c-26.8,0-50.393,11.491-65.809,20.134
			c-15.262,8.557-32.769,8.557-48.03,0c-15.416-8.644-39.009-20.134-65.809-20.134c-3.286,0-6.39,0.462-9.262,1.109
			C146.792,6.324,119.934-6.745,96.275,4.287c-0.075,0.035-0.149,0.07-0.224,0.106L25.825,38.563
			c-31.554,14.824-34.936,58.343-6.034,77.864c1.455,0.983,1.492,0.921,11.47,5.295C7.612,171.321-2.865,225.315,0.891,278.909
			c4.073,58.113,24.832,114.304,60.096,162.839v10.053c0,33.019,26.863,59.882,59.882,59.882c20.12,0,37.94-9.984,48.804-25.248
			c13.723,15.472,33.732,25.248,55.99,25.248h59.882c22.258,0,42.267-9.777,55.99-25.248c10.864,15.264,28.685,25.248,48.804,25.248
			c33.019,0,59.882-26.863,59.882-59.882v-9.697c34.61-47.184,55.314-102.837,59.908-161.182
			c4.32-54.857-5.752-109.59-29.155-159.067C491.085,117.157,490.93,117.291,492.209,116.427z M406.237,31.332l66.676,34.073
			c0.161,0.082,0.322,0.161,0.485,0.238c10.345,4.824,11.541,18.747,2.871,25.384l-54.678,25.407
			c-8.44,3.922-18.339-0.686-20.763-9.683l-15.679-58.204C384.687,37.248,396.261,26.876,406.237,31.332z M38.602,65.641
			c0.075-0.035,0.149-0.07,0.224-0.106l70.195-34.155c10.004-4.574,21.661,5.822,21.197,17.166l-15.68,58.204
			c-2.42,8.986-12.313,13.609-20.763,9.683c-0.1-0.046-0.2-0.091-0.299-0.135L35.62,90.94
			C27.094,84.298,28.272,70.459,38.602,65.641z M150.811,435.833v0.998v14.971c0,16.51-13.432,29.941-29.941,29.941
			c-16.51,0-29.941-13.432-29.941-29.941v-14.971c0-74.844,60.542-135.733,134.835-135.733h14.971v31.015
			C190.018,339.399,150.811,383.131,150.811,435.833z M225.664,256.186c0-8.255,6.716-14.971,14.971-14.971h29.941
			c8.255,0,14.971,6.716,14.971,14.971c0,8.255-6.716,14.971-14.971,14.971h-29.941C232.38,271.156,225.664,264.441,225.664,256.186
			z M330.458,436.831c0,24.764-20.147,44.912-44.912,44.912h-59.882c-24.764,0-44.912-20.147-44.912-44.912v-0.998
			c0-41.274,33.579-74.853,74.853-74.853c41.274,0,74.853,33.579,74.853,74.853V436.831z M420.281,451.802
			c0,16.51-13.432,29.941-29.941,29.941c-16.51,0-29.941-13.432-29.941-29.941v-14.971v-0.998c0-52.7-39.107-96.434-89.823-103.72
			v-31.015h14.971c74.293,0,134.735,60.889,134.735,135.733V451.802z M444.913,395.043
			c-16.275-62.778-68.323-111.166-132.829-121.725c2.189-5.283,3.403-11.067,3.403-17.132c0-4.506-0.675-8.857-1.915-12.964
			c39.621,5.709,78.106,23.907,108.939,54.485c5.871,5.822,15.35,5.782,21.171-0.088c5.822-5.87,5.782-15.35-0.088-21.171
			c-9.582-9.502-19.874-18.03-30.743-25.553c4.739-7.212,7.429-15.761,7.429-24.651c0-24.764-20.147-44.912-44.912-44.912
			c-21.246,0-39.081,14.835-43.723,34.687c-25.558-5.327-43.095-4.746-61.071-4.746h-29.941c-17.952,0-35.456-0.593-61.071,4.746
			c-4.642-19.852-22.477-34.687-43.723-34.687c-24.764,0-44.912,20.147-44.912,44.912c0,8.89,2.69,17.439,7.429,24.651
			c-10.905,7.548-21.227,16.105-30.837,25.647c-5.867,5.826-5.901,15.304-0.076,21.171c5.825,5.866,15.304,5.902,21.171,0.076
			c29.801-29.588,67.755-48.62,109.022-54.567c-1.241,4.107-1.915,8.457-1.915,12.964c0,6.065,1.215,11.85,3.403,17.132
			c-64.39,10.54-116.364,58.775-132.738,121.388c-44.981-80.556-48.205-176.552-7.678-260.954l22.611,9.911
			c25.225,11.599,54.893-2.268,62.127-29.123l14.587-54.146c2.909-0.912,5.87-1.819,7.747-1.819c15.062,0,31.32,5.183,51.165,16.309
			c24.206,13.573,53.112,13.572,77.316,0c19.845-11.127,36.103-16.309,51.165-16.309c3.315,0,7.518,1.271,11.968,2.616
			c0.054,0.016,0.109,0.032,0.163,0.049l14.359,53.301c7.269,26.98,37.095,40.755,62.292,29.047l19.612-9.113
			C493.15,217.6,489.277,315.425,444.913,395.043z M360.57,224.106c1.043-7.243,7.273-12.832,14.8-12.832
			c8.255,0,14.971,6.716,14.971,14.971c0,3.465-1.166,6.7-3.214,9.286C378.523,231.148,369.659,227.329,360.57,224.106z
			 M150.64,224.105c-9.089,3.223-17.955,7.042-26.557,11.425c-2.047-2.586-3.213-5.821-3.213-9.285
			c0-8.255,6.716-14.971,14.971-14.971C143.367,211.274,149.596,216.863,150.64,224.105z"/>
	</g>
</g>
<g>
	<g>
		<path d="M341.732,111.653c-4.283-7.073-13.487-9.338-20.56-5.055c-21.803,13.197-38.037,33.798-45.712,58.006
			c-2.498,7.882,1.865,16.296,9.747,18.795c7.883,2.498,16.296-1.865,18.795-9.747c5.48-17.286,17.084-32.003,32.675-41.44
			C343.75,127.931,346.013,118.726,341.732,111.653z"/>
	</g>
</g>
<g>
	<g>
		<path d="M235.751,164.606c-7.314-23.071-22.567-43.055-42.949-56.275c-6.936-4.499-16.207-2.523-20.706,4.413
			c-4.499,6.936-2.523,16.207,4.413,20.706c14.575,9.454,25.478,23.731,30.7,40.204c2.498,7.878,10.908,12.245,18.795,9.747
			C233.886,180.902,238.249,172.487,235.751,164.606z"/>
	</g>
</g>
<g>
</g>
<g>
</g>
<g>
</g>
<g>
</g>
<g>
</g>
<g>
</g>
<g>
</g>
<g>
</g>
<g>
</g>
<g>
</g>
<g>
</g>
<g>
</g>
<g>
</g>
<g>
</g>
<g>
</g>
</svg>
